

<svg
	xmlns="http://www.w3.org/2000/svg"
	xmlns:xlink="http://www.w3.org/1999/xlink"
	id = "skywardLogo"
	viewBox = "-100 -75 200 150"
	width="1024px"
	height="512px"
	role="img"
	aria-labelledby="Disassembly and Atmosphere"
	aria-describedby="">

	<defs>
    	<radialGradient id="radialGradient">
    		<stop offset="1%" stop-color="white" />
    		<stop offset="100%" stop-color="black" />
    	</radialGradient>
		<linearGradient id="linearGradient1">
			<stop offset="33%" stop-color="white" />
    		<stop offset="67%" stop-color="black" />
		</linearGradient>
		<linearGradient id="linearGradient2">
			<stop offset="33%" stop-color="black" />
    		<stop offset="67%" stop-color="white" />
		</linearGradient>
	</defs>

	<g mask="url(#whiteMask)">
		<rect x="-100" y="-100" width="200" height="200" fill="white"/>
	</g>
		<g mask="url(#starMask)">
		<rect x="-100" y="-100" width="200" height="200" fill="white"/>
	</g>
	<g mask="url(#blackMask)">
		<rect x="-100" y="-100" width="200" height="200" fill="black"/>
	</g>


	<defs>
		<mask id="whiteMask">
			<circle cx="0"
				cy="0"
				r="90"
				fill="none"
				stroke="url(#linearGradient1)"
				stroke-width="3"
				stroke-dasharray="3 .5"
				transform="scale(1,.25) rotate(90)">
			</circle>

			<g transform="rotate(45)">
				<circle cx="0"
					cy="0"
					r="50"
					fill="none"
					stroke="url(#linearGradient1)"
					stroke-width="1"
					stroke-dasharray="2 .5"
					transform="scale(1,.5) rotate(90)">
				</circle>
			</g>
			<g transform="rotate(-15)">
				<circle cx="0"
					cy="0"
					r="48"
					fill="none"
					stroke="url(#linearGradient1)"
					stroke-width="3"
					stroke-dasharray="2 .5"
					transform="scale(1,.1) rotate(90)">
				</circle>
			</g>
			<g transform="rotate(30)">
				<circle cx="0"
					cy="0"
					r="46"
					fill="none"
					stroke="url(#linearGradient1)"
					stroke-width="1"
					stroke-dasharray="2 .5"
					transform="scale(1,.25) rotate(90)">
				</circle>
			</g>
			<g transform="rotate(-40)">
				<circle cx="0"
					cy="0"
					r="35"
					fill="none"
					stroke="url(#linearGradient1)"
					stroke-width="1"
					stroke-dasharray="2 .5"
					transform="scale(1,.6) rotate(90)">
				</circle>
			</g>
			<g transform="rotate(80)">
				<circle cx="0"
					cy="0"
					r="30"
					fill="none"
					stroke="url(#linearGradient1)"
					stroke-width="1"
					stroke-dasharray="2 .5"
					transform="scale(1,.25) rotate(90)">
				</circle>
			</g>
			<g transform="rotate(65)">
				<circle cx="0"
					cy="0"
					r="25"
					fill="none"
					stroke="url(#linearGradient1)"
					stroke-width="1"
					stroke-dasharray="2 .5"
					transform="scale(1,.25) rotate(90)">
				</circle>
			</g>
			<g transform="rotate(50)">
				<circle cx="0"
					cy="0"
					r="20"
					fill="none"
					stroke="url(#linearGradient1)"
					stroke-width="1"
					stroke-dasharray="2 .5"
					transform="scale(1,.25) rotate(90)">
				</circle>
			</g>
			<g transform="rotate(35)">
				<circle cx="0"
					cy="0"
					r="15"
					fill="none"
					stroke="url(#linearGradient1)"
					stroke-width="1"
					stroke-dasharray="2 .5"
					transform="scale(1,.25) rotate(90)">
				</circle>
			</g>
			<g transform="rotate(10)">
				<circle cx="0"
					cy="0"
					r="10"
					fill="none"
					stroke="url(#linearGradient1)"
					stroke-width="1"
					stroke-dasharray="2 .5"
					transform="scale(1,.25) rotate(90)">
				</circle>
			</g>
		</mask>
	</defs>

	<defs>
		<mask id="starMask">
			<circle cx="0" cy="0" r="40" fill="url(#radialGradient)"/>
		</mask>
	</defs>

	<defs>
		<mask id="blackMask">
			<g transform="rotate(10)">
				<circle cx="0"
					cy="0"
					r="10"
					fill="none"
					stroke="url(#linearGradient2)"
					stroke-width="1"
					transform="scale(1,.25) rotate(90)">
				</circle>
			</g>
			<g transform="rotate(35)">
				<circle cx="0"
					cy="0"
					r="15"
					fill="none"
					stroke="url(#linearGradient2)"
					stroke-width="1"
					transform="scale(1,.25) rotate(90)">
				</circle>
			</g>
			<g transform="rotate(50)">
				<circle cx="0"
					cy="0"
					r="20"
					fill="none"
					stroke="url(#linearGradient2)"
					stroke-width="1.5"
					transform="scale(1,.25) rotate(90)">
				</circle>
			</g>
			<g transform="rotate(65)">
				<circle cx="0"
					cy="0"
					r="25"
					fill="none"
					stroke="url(#linearGradient2)"
					stroke-width="1.5"
					transform="scale(1,.25) rotate(90)">
				</circle>
			</g>
			<g transform="rotate(80)">
				<circle cx="0"
					cy="0"
					r="30"
					fill="none"
					stroke="url(#linearGradient2)"
					stroke-width="1.5"
					transform="scale(1,.25) rotate(90)">
				</circle>
			</g>
			<g transform="rotate(-40)">
				<circle cx="0"
					cy="0"
					r="35"
					fill="none"
					stroke="url(#linearGradient2)"
					stroke-width="1"
					transform="scale(1,.6) rotate(90)">
				</circle>
			</g>
			<g transform="rotate(30)">
				<circle cx="0"
					cy="0"
					r="46"
					fill="none"
					stroke="url(#linearGradient2)"
					stroke-width="1"
					transform="scale(1,.25) rotate(90)">
				</circle>
			</g>
			<g transform="rotate(-15)">
				<circle cx="0"
					cy="0"
					r="48"
					fill="none"
					stroke="url(#linearGradient2)"
					stroke-width="3"
					transform="scale(1,.1) rotate(90)">
				</circle>
			</g>
			<g transform="rotate(45)">
				<circle cx="0"
					cy="0"
					r="50"
					fill="none"
					stroke="url(#linearGradient2)"
					stroke-width="1"
					transform="scale(1,.5) rotate(90)">
				</circle>
			</g>
			<circle cx="0"
				cy="0"
				r="90"
				fill="none"
				stroke="url(#linearGradient2)"
				stroke-width="3"
				transform="scale(1,.25) rotate(90)">
			</circle>
		</mask>
	</defs>

</svg>