<svg xmlns="http://www.w3.org/2000/svg" width="16" height="16" class="bi bi-discord" fill="white" viewBox="0 0 16 16">
  <path d="M 13.545 2.907 a 13.227 13.227 0 0 0 -3.257 -1.011 a 0.05 0.05 0 0 0 -0.052 0.025 c -0.141 0.25 -0.297 0.577 -0.406 0.833 a 12.19 12.19 0 0 0 -3.658 0 a 8.258 8.258 0 0 0 -0.412 -0.833 a 0.051 0.051 0 0 0 -0.052 -0.025 c -1.125 0.194 -2.22 0.534 -3.257 1.011 a 0.041 0.041 0 0 0 -0.021 0.018 C 0.356 6.024 -0.213 9.047 0.066 12.032 c 0.001 0.014 0.01 0.028 0.021 0.037 a 13.276 13.276 0 0 0 3.995 2.02 a 0.05 0.05 0 0 0 0.056 -0.019 c 0.308 -0.42 0.582 -0.863 0.818 -1.329 a 0.05 0.05 0 0 0 -0.01 -0.059 a 0.051 0.051 0 0 0 -0.018 -0.011 a 8.875 8.875 0 0 1 -1.248 -0.595 a 0.05 0.05 0 0 1 -0.02 -0.066 a 0.051 0.051 0 0 1 0.015 -0.019 c 0.084 -0.063 0.168 -0.129 0.248 -0.195 a 0.05 0.05 0 0 1 0.051 -0.007 c 2.619 1.196 5.454 1.196 8.041 0 a 0.052 0.052 0 0 1 0.053 0.007 c 0.08 0.066 0.164 0.132 0.248 0.195 a 0.051 0.051 0 0 1 -0.004 0.085 a 8.254 8.254 0 0 1 -1.249 0.594 a 0.05 0.05 0 0 0 -0.03 0.03 a 0.052 0.052 0 0 0 0.003 0.041 c 0.24 0.465 0.515 0.909 0.817 1.329 a 0.05 0.05 0 0 0 0.056 0.019 a 13.235 13.235 0 0 0 4.001 -2.02 a 0.049 0.049 0 0 0 0.021 -0.037 c 0.334 -3.451 -0.559 -6.449 -2.366 -9.106 a 0.034 0.034 0 0 0 -0.02 -0.019 Z m -8.198 7.307 c -0.789 0 -1.438 -0.724 -1.438 -1.612 c 0 -0.889 0.637 -1.613 1.438 -1.613 c 0.807 0 1.45 0.73 1.438 1.613 c 0 0.888 -0.637 1.612 -1.438 1.612 Z m 5.316 0 c -0.788 0 -1.438 -0.724 -1.438 -1.612 c 0 -0.889 0.637 -1.613 1.438 -1.613 c 0.807 0 1.451 0.73 1.438 1.613 c 0 0.888 -0.631 1.612 -1.438 1.612 Z M 2.82 9 c -1 0 -1 -1 -1 -1 c 0 -1 1 -1 1 -1 c 1 0 1 1 1 1 c 0 1 -1 1 -1 1 Z M 13.2 9 c -1 0 -1 -1 -1 -1 c 0 -1 1 -1 1 -1 c 1 0 1 1 1 1 c 0 1 -1 1 -1 1 Z"/>
</svg>