<svg id="Layer_1" data-name="Layer 1" xmlns="http://www.w3.org/2000/svg" viewBox="0 0 32.56 32.56"><path d="M23.72,11.8H22.26v5.56h1.46a2.78,2.78,0,1,0,0-5.56Z"/><path d="M16.28,0A16.28,16.28,0,1,0,32.56,16.28,16.28,16.28,0,0,0,16.28,0Zm7.59,20.36H22.26v1.69a2.59,2.59,0,0,1-2.59,2.59H7.43a2.59,2.59,0,0,1-2.59-2.59v-12a1.3,1.3,0,0,1,1.3-1.3H23.87a5.61,5.61,0,0,1,5.61,5.61v.33A5.61,5.61,0,0,1,23.87,20.36Z"/><path d="M13.2,14.08a2.66,2.66,0,0,1,2.85-1.76c2.24,0,3.07,2.79,1.9,4.62a21.93,21.93,0,0,1-4.75,4.62,21.93,21.93,0,0,1-4.75-4.62c-1.17-1.83-.34-4.62,1.9-4.62A2.66,2.66,0,0,1,13.2,14.08Z"/></svg>