<svg xmlns="http://www.w3.org/2000/svg" width="16" height="16" class="bi bi-egg" viewBox="-3 -3 23 23">
<circle fill="black" cx="8" cy="8" r="11" />
  <path fill="white" d="M8 15a5 5 0 0 1-5-5c0-1.956.69-4.286 1.742-6.12.524-.913 1.112-1.658 1.704-2.164C7.044 1.206 7.572 1 8 1c.428 0 .956.206 1.554.716.592.506 1.18 1.251 1.704 2.164C12.31 5.714 13 8.044 13 10a5 5 0 0 1-5 5zm0 1a6 6 0 0 0 6-6c0-4.314-3-10-6-10S2 5.686 2 10a6 6 0 0 0 6 6z"/>
  <path fill="white" d="M7.657 6.247c.11-.33.576-.33.686 0l.645 1.937a2.89 2.89 0 0 0 1.829 1.828l1.936.645c.33.11.33.576 0 .686l-1.937.645a2.89 2.89 0 0 0-1.828 1.829l-.645 1.936a.361.361 0 0 1-.686 0l-.645-1.937a2.89 2.89 0 0 0-1.828-1.828l-1.937-.645a.361.361 0 0 1 0-.686l1.937-.645a2.89 2.89 0 0 0 1.828-1.828l.645-1.937zM3.794 1.148a.217.217 0 0 1 .412 0l.387 1.162c.173.518.579.924 1.097 1.097l1.162.387a.217.217 0 0 1 0 .412l-1.162.387A1.734 1.734 0 0 0 4.593 5.69l-.387 1.162a.217.217 0 0 1-.412 0L3.407 5.69A1.734 1.734 0 0 0 2.31 4.593l-1.162-.387a.217.217 0 0 1 0-.412l1.162-.387A1.734 1.734 0 0 0 3.407 2.31l.387-1.162zM10.863.099a.145.145 0 0 1 .274 0l.258.774c.115.346.386.617.732.732l.774.258a.145.145 0 0 1 0 .274l-.774.258a1.156 1.156 0 0 0-.732.732l-.258.774a.145.145 0 0 1-.274 0l-.258-.774a1.156 1.156 0 0 0-.732-.732L9.1 2.137a.145.145 0 0 1 0-.274l.774-.258c.346-.115.617-.386.732-.732L10.863.1z"/>
</svg>