<svg
	xmlns="http://www.w3.org/2000/svg"
	xmlns:xlink="http://www.w3.org/1999/xlink"
	id = "skywardLogo"
	viewBox = "0 0 100 100"
	width="1000px"
	height="1000px"
	role="img"
	aria-labelledby="Skyward"
	aria-describedby=""
>
	<!--black circle-->
	<circle fill="black" stroke-width="5"
				cx="50" cy="50" r="42.5"/>

	<g mask="url(#mask)">
		<rect x="0" y="0" width="100" height="100" fill="white" />
	</g>
	<defs>
		<mask id="mask">
			<!--O-->
			<circle stroke="white" stroke-width="5"
				cx="50" cy="50" r="30"/>
			<!--o-->
			<circle stroke="white" stroke-width="5"
				cx="50" cy="35" r="5"/>
			<!--below A-->
			<circle fill="white"
				cx="36" cy="70" r="5"/>
			<circle fill="white"
				cx="64" cy="70" r="5"/>
			<path stroke="black" stroke-width="8" fill="none"
				d="M 15 85 C 50 55 50 50 50 50 C 50 50 50 55 85 85"/>
			<!--A-->
			<path stroke="white" stroke-width="5" fill="none"
				d="M 15 80 C 50 50 50 50 50 50 C 50 50 50 50 85 80"/>
			<!--V-->
			<path stroke="black" stroke-width="15" fill="none"
				d="M 14 24 C 14 24 50 70 50 95 C 50 95 50 70 86 24"/>
			<path stroke="white" stroke-width="5" fill="none"
				d="M 14 24 C 14 24 50 70 50 95 C 50 95 50 70 86 24"/>
			<!--enclose-->
			<circle stroke="black" stroke-width="5" fill="none"
				cx="50" cy="50" r="45"/>
		</mask>
	</defs>
</svg>