<?xml version="1.0" standalone="no"?>
<svg version="1.0" xmlns="http://www.w3.org/2000/svg"
 width="202pt" height="200pt" viewBox="0 0 202 200" fill="white">

<g transform="translate(0.000000,200.000000) scale(0.100000,-0.100000)">
<path d="M502 1497 c-276 -276 -502 -508 -502 -515 0 -9 37 -12 150 -12 l150
0 0 -485 0 -485 710 0 710 0 0 485 0 485 150 0 c114 0 150 3 150 13 0 7 -83
95 -185 197 l-185 185 0 252 0 253 -170 0 -170 0 0 -82 0 -83 -148 148 c-81
81 -149 147 -152 147 -3 0 -231 -226 -508 -503z m698 -842 l0 -135 125 0 125
0 0 135 0 135 70 0 70 0 0 -345 0 -345 -70 0 -70 0 0 155 0 155 -125 0 -125 0
0 -155 0 -155 -65 0 -65 0 0 290 0 290 -80 0 -80 0 0 -290 0 -290 -70 0 -70 0
0 290 0 290 -90 0 -90 0 0 55 0 55 305 0 305 0 0 -135z"/>
</g>
</svg>
