<?xml version="1.0" standalone="no"?>
<svg version="1.0" xmlns="http://www.w3.org/2000/svg"
 width="16pt" height="16pt" viewBox="0 0 16 16" fill="white">
<g transform="translate(0.000000,16.000000) scale(0.005281,-0.005281)">
<path d="M474 3015 c-177 -39 -330 -162 -411 -330 -64 -135 -63 -110 -63
-1170 0 -1073 -2 -1036 70 -1183 72 -146 208 -257 375 -309 57 -17 118 -18
1070 -18 952 0 1013 1 1070 18 167 52 303 163 375 309 73 149 71 109 68 1221
l-3 992 -27 75 c-65 177 -201 313 -379 378 l-74 27 -1005 2 c-811 1 -1017 -1
-1066 -12z m1206 -775 l0 -240 170 0 170 0 0 -180 0 -180 -170 0 -171 0 3
-294 c3 -281 4 -296 24 -323 41 -55 76 -67 211 -71 l123 -4 -2 -187 -3 -186
-210 1 c-280 1 -360 21 -467 122 -61 57 -95 114 -121 201 -17 58 -20 107 -24
404 l-5 337 -129 0 -129 0 0 150 0 150 28 12 c191 77 295 177 358 344 13 36
27 92 31 125 l6 59 153 0 154 0 0 -240z"/>
</g>
</svg>
