<svg xmlns="http://www.w3.org/2000/svg" width="16" height="16" fill="white" class="bi bi-twitter" viewBox="0 0 16 16">
  <path d="M 5.026 15 c 6.038 0 9.341 -5.003 9.341 -9.334 c 0 -0.14 0 -0.282 -0.006 -0.422 A 6.685 6.685 90 0 0 16 3.542 a 6.658 6.658 90 0 1 -1.889 0.518 a 3.301 3.301 90 0 0 1.447 -1.817 a 6.533 6.533 90 0 1 -2.087 0.793 A 3.286 3.286 90 0 0 7.875 6.03 a 9.325 9.325 90 0 1 -6.767 -3.429 a 3.289 3.289 90 0 0 1.018 4.382 A 3.323 3.323 90 0 1 0.64 6.575 v 0.045 a 3.288 3.288 90 0 0 2.632 3.218 a 3.203 3.203 90 0 1 -0.865 0.115 a 3.23 3.23 90 0 1 -0.614 -0.057 a 3.283 3.283 90 0 0 3.067 2.277 A 6.588 6.588 90 0 1 0.78 13.58 a 6.32 6.32 90 0 1 -0.78 -0.045 A 9.344 9.344 90 0 0 5.026 15 z M 12.25 5.25 c -1 0 -1 -1 -1 -1 c 0 -1 1 -1 1 -1 c 1 0 1 1 1 1 c 0 1 -1 1 -1 1 Z M 10.25 5.5 c -0.7 0 -0.7 -0.7 -0.7 -0.7 c 0 -0.7 0.7 -0.7 0.7 -0.7 c 0.7 0 0.7 0.7 0.7 0.7 c 0 0.7 -0.7 0.7 -0.7 0.7 Z"/>
</svg>