<svg id="Layer_1" data-name="Layer 1" xmlns="http://www.w3.org/2000/svg" fill="currentColor" viewBox="0 0 514.5 216.25"><path d="M236.25,123.5c-1-.22-1.93-.39-2.87-.66a17.73,17.73,0,0,1-8.9-6.18c-5.12-6.36-10.1-12.82-15.12-19.26Q198.7,83.7,188.07,70a2.44,2.44,0,0,0-2.22-1q-200.53,0-401.08,0a26.12,26.12,0,0,1-26.3-23.21,2.78,2.78,0,0,0-.22-.54v-114a4.48,4.48,0,0,0,.22-.68A26.07,26.07,0,0,1-222-91.81c1.63-.41,3.31-.63,5-.94H248a4.83,4.83,0,0,0,.81.21A26.1,26.1,0,0,1,271.5-74.28c.53,1.73.84,3.52,1.25,5.28V45.25a4.66,4.66,0,0,0-.23.81A26.17,26.17,0,0,1,250.6,68.67c-1.26.17-1.42.63-1.41,1.72q.06,19.17.05,38.34a25.57,25.57,0,0,1-.26,3.61,12.43,12.43,0,0,1-9.56,10.76c-.64.15-1.28.27-1.92.4ZM239.5,60h6.7A16.49,16.49,0,0,0,263,43.21V-65.29c0-9.85-7.16-17-17-17H-215c-9.78,0-17,7.19-17,17V42.9c0,9.85,7.19,17.06,17,17.06H24q83.31,0,166.62,0A2.65,2.65,0,0,1,193,61.09c6.22,8.09,12.5,16.14,18.76,24.19s12.52,16.12,18.79,24.17a14,14,0,0,0,4.95,4.48c1.77.83,3.16.24,3.67-1.66a12.8,12.8,0,0,0,.36-3.21q0-23.75,0-47.49Z" transform="translate(241.75 92.75)"/><path d="M96.27,39.63H-28.85A16.47,16.47,0,0,1-45.64,25.25a13,13,0,0,1-.11-1.87V-47A16.44,16.44,0,0,1-29.49-63.25H221.24A16.42,16.42,0,0,1,237.61-46.7q.09,34.88,0,69.75a16.43,16.43,0,0,1-16.84,16.58ZM76.79-7.32V-5.7c0,10.58,0,21.16,0,31.74a4.59,4.59,0,0,0,2.94,4.63,11.6,11.6,0,0,0,9.68-.05,4.47,4.47,0,0,0,2.87-4.51q0-38,0-76a4.31,4.31,0,0,0-3.2-4.64,13,13,0,0,0-8.34-.25c-2.86.82-3.92,2.28-3.92,5.27v29.94H50v-1.57c0-9.62,0-19.25,0-28.87a4.23,4.23,0,0,0-2.66-4.25,12.35,12.35,0,0,0-10-.13,4.37,4.37,0,0,0-2.88,4.5q0,37.92,0,75.85a4.64,4.64,0,0,0,3,4.72,11.66,11.66,0,0,0,9.57,0A4.61,4.61,0,0,0,50,26C50,15.42,50,4.8,50-5.82v-1.5Zm58.09,20.07c4,0,8.08.06,12.12,0,1.25,0,1.68.41,2,1.55,1.27,4.7,2.67,9.36,4,14a4.1,4.1,0,0,0,3.68,3.22A11.87,11.87,0,0,0,165.78,29c2.12-1.6,2.52-3.06,1.76-5.56Q156.25-13.36,145-50.21a7,7,0,0,0-4.19-4.65,15.47,15.47,0,0,0-10.39-.54,7.87,7.87,0,0,0-5.83,5.71Q113.42-13,102.14,23.54a4.42,4.42,0,0,0,1.69,5.5,11.94,11.94,0,0,0,7.77,2.62c2.55-.05,4.45-.47,5.39-4.11,1.16-4.51,2.55-9,3.77-13.45a1.55,1.55,0,0,1,1.87-1.38C126.71,12.8,130.79,12.75,134.88,12.75ZM-32.75-11.59H-33c0,5.49-.07,11,0,16.49a48.71,48.71,0,0,0,.73,7.82c1.58,8.32,6,14.52,14.14,17.48a35.87,35.87,0,0,0,27.39-.85c9.11-4,13.85-11.86,13.45-21.78-.11-2.5-.79-4.8-3.44-5.7A13,13,0,0,0,10.52,2,4.41,4.41,0,0,0,7.44,6.13,31,31,0,0,1,7,9.85c-.81,4.31-3.05,7.43-7.51,8.54a16.89,16.89,0,0,1-3.33.45c-4,.12-7.77-.43-10.6-3.62-2.35-2.64-3-5.9-3-9.29q0-17.13,0-34.25a24.14,24.14,0,0,1,.27-3.6c.76-5.12,3.7-8.62,8.46-9.43a24.07,24.07,0,0,1,7.67,0c4.37.7,7.06,3.52,8,7.85A19.21,19.21,0,0,1,7.43-30a4.17,4.17,0,0,0,3.49,4.28,26.56,26.56,0,0,0,6.17.5c3.55-.12,5.4-2,5.65-5.56.58-8.37-2.58-15-9.62-19.57C7.73-53.93,1.66-55.17-4.69-55.29A32.84,32.84,0,0,0-19.3-52.61c-8.76,4-12.78,11.34-13.37,20.54C-33.1-25.26-32.75-18.41-32.75-11.59ZM187-41.46v1.82q0,32.75,0,65.48a4.86,4.86,0,0,0,3.33,5,11.86,11.86,0,0,0,7.23.5c3.79-.89,4.92-2.33,4.92-6.16V-41.46H204c5.17,0,10.33,0,15.5,0a4.25,4.25,0,0,0,4.08-2.37,9.43,9.43,0,0,0,.12-9,4.34,4.34,0,0,0-4.25-2.51q-24.73,0-49.48,0a4.48,4.48,0,0,0-4.48,3,9.7,9.7,0,0,0,0,7.88,4.49,4.49,0,0,0,4.54,3c5.17-.06,10.33,0,15.5,0Z" transform="translate(241.75 92.75)"/><path d="M-89.57-6.58C-85.82.38-82.16,7.19-78.49,14c1.52,2.82,3.06,5.63,4.59,8.45a4.29,4.29,0,0,1,0,4,10.59,10.59,0,0,1-9.69,5.87,5.84,5.84,0,0,1-4.81-3.52c-2.6-5-5.15-10-7.72-15Q-100.57,5.17-105-3.41c-.18-.35-.6-.8-.91-.8-3.08-.06-6.15,0-9.37,0V25.68c0,3-1,4.47-3.81,5.4a11.74,11.74,0,0,1-9.22-.54,4.31,4.31,0,0,1-2.57-4.19q0-38.23,0-76.48c0-3.2,1.89-5.23,5.07-5.23,9.12,0,18.25,0,27.36.15a29.84,29.84,0,0,1,12.66,3c7.15,3.53,10.59,9.59,11.5,17.27a33,33,0,0,1-1.44,15.15A20.4,20.4,0,0,1-88.29-7Zm-25.67-10c5.24,0,10.37.25,15.47-.06,5.36-.33,8.5-3.08,9.67-7.74a19.13,19.13,0,0,0,.25-8.18c-1-5.48-4.07-8.55-9.66-8.95-5.14-.37-10.32-.18-15.48-.24-.07,0-.14.08-.25.15Z" transform="translate(241.75 92.75)"/><path d="M-173.34,12.08c1.24-4.42,2.4-8.54,3.56-12.66q7.18-25.64,14.37-51.29a4.1,4.1,0,0,1,4.07-3.4,11.89,11.89,0,0,1,9.64,3.19,4.19,4.19,0,0,1,1.18,4.66q-11.31,37-22.58,74a7,7,0,0,1-4.46,4.84A15.28,15.28,0,0,1-179.93,31a6.71,6.71,0,0,1-3.61-4.24q-11.34-37-22.73-74a4.46,4.46,0,0,1,1.46-5.15,12,12,0,0,1,9.9-2.74,4.13,4.13,0,0,1,3.49,3.3q8.8,31.34,17.68,62.66C-173.65,11.09-173.55,11.41-173.34,12.08Z" transform="translate(241.75 92.75)"/><path d="M134.93-35.58c3.4,12,6.8,24,10.23,36.13H124.41c3.43-12.09,6.83-24.11,10.24-36.14Z" transform="translate(241.75 92.75)"/></svg>