<svg
	xmlns="http://www.w3.org/2000/svg"
	xmlns:xlink="http://www.w3.org/1999/xlink"
	id = "centerSVG"
	viewBox = "-420 -420 840 840"
	width="1000px"
	height="1000px"
	role="img"
	aria-labelledby="Orbital Sequence"
	aria-describedby="Nested circular orbits of prime numbered nodes rotating clockwise."
>
	<defs>
		<filter id="gooey">
			<feGaussianBlur in="SourceGraphic" stdDeviation="3" result="blur" />
			<feColorMatrix in="blur" mode="matrix" values="1 0 0 0 0  0 1 0 0 0  0 0 1 0 0  0 0 0 30 -20" result="gooey" />
			<feComposite in="SourceGraphic" in2="gooey" operator="atop"/>
		</filter>
	</defs>

	<circle cx="0%" cy="0%" r="41.5%" stroke="black" stroke-width="4" fill="white"/>

	<g filter="url('#gooey')">
		<!--
		<circle cx="0%" cy="0%" r="2%" stroke="black" stroke-width="7" fill="none"/>
		<circle cx="0%" cy="0%" r="4%" stroke="black" stroke-width="7" fill="none"/>
		<circle cx="0%" cy="0%" r="6%" stroke="black" stroke-width="7" fill="none"/>
		<circle cx="0%" cy="0%" r="8%" stroke="black" stroke-width="7" fill="none"/>
		<circle cx="0%" cy="0%" r="10%" stroke="black" stroke-width="7" fill="none"/>
		<circle cx="0%" cy="0%" r="12%" stroke="black" stroke-width="7" fill="none"/>
		<circle cx="0%" cy="0%" r="14%" stroke="black" stroke-width="7" fill="none"/>
		<circle cx="0%" cy="0%" r="16%" stroke="black" stroke-width="7" fill="none"/>
		<circle cx="0%" cy="0%" r="18%" stroke="black" stroke-width="7" fill="none"/>
		<circle cx="0%" cy="0%" r="20%" stroke="black" stroke-width="7" fill="none"/>
		<circle cx="0%" cy="0%" r="22%" stroke="black" stroke-width="7" fill="none"/>
		<circle cx="0%" cy="0%" r="24%" stroke="black" stroke-width="7" fill="none"/>
		<circle cx="0%" cy="0%" r="26%" stroke="black" stroke-width="7" fill="none"/>
		<circle cx="0%" cy="0%" r="28%" stroke="black" stroke-width="7" fill="none"/>
		<circle cx="0%" cy="0%" r="30%" stroke="black" stroke-width="7" fill="none"/>
		<circle cx="0%" cy="0%" r="32%" stroke="black" stroke-width="7" fill="none"/>
		<circle cx="0%" cy="0%" r="34%" stroke="black" stroke-width="7" fill="none"/>
		<circle cx="0%" cy="0%" r="36%" stroke="black" stroke-width="7" fill="none"/>
		<circle cx="0%" cy="0%" r="38%" stroke="black" stroke-width="7" fill="none"/>
		<circle cx="0%" cy="0%" r="40%" stroke="black" stroke-width="7" fill="none"/>
		-->
		<g>
			<animateTransform attributeName="transform" attributeType="XML" type="rotate" from="0" to="360" dur="3s" repeatCount="indefinite"/>
			<circle cx="2%" cy="0%" r="1%" fill="black"/>
			<circle cx="-2%" cy="0%" r="1%" fill="black"/>
		</g>
		<g>
			<animateTransform attributeName="transform" attributeType="XML" type="rotate" from="0" to="360" dur="6s" repeatCount="indefinite"/>
			<circle cx="4%" cy="0%" r="1%" fill="black"/>
			<circle cx="-2%" cy="3.464%" r="1%" fill="black"/>
			<circle cx="-2%" cy="-3.464%" r="1%" fill="black"/>
		</g>
		<g>
			<animateTransform attributeName="transform" attributeType="XML" type="rotate" from="0" to="360" dur="9s" repeatCount="indefinite"/>
			<circle cx="6%" cy="0%" r="1%" fill="black"/>
			<circle cx="1.854%" cy="5.706%" r="1%" fill="black"/>
			<circle cx="1.854%" cy="-5.706%" r="1%" fill="black"/>
			<circle cx="-4.854%" cy="-3.527%" r="1%" fill="black"/>
			<circle cx="-4.854%" cy="3.527%" r="1%" fill="black"/>
		</g>
		<g>
			<animateTransform attributeName="transform" attributeType="XML" type="rotate" from="0" to="360" dur="12s" repeatCount="indefinite"/>
			<circle cx="8%" cy="0%" r="1%" fill="black" />
			<circle cx="4.988%" cy="-6.255%" r="1%" fill="black"/>
			<circle cx="-1.78%" cy="-7.799%" r="1%" fill="black"/>
			<circle cx="-7.208%" cy="-3.471%" r="1%" fill="black"/>
			<circle cx="-7.208%" cy="3.471%" r="1%" fill="black"/>
			<circle cx="-1.78%" cy="7.799%" r="1%" fill="black"/>
			<circle cx="4.988%" cy="6.255%" r="1%" fill="black"/>
		</g>
		<g>
			<animateTransform attributeName="transform" attributeType="XML" type="rotate" from="0" to="360" dur="15s" repeatCount="indefinite"/>
			<circle cx="10%" cy="0%" r="1%" fill="black"/>
			<circle cx="8.413%" cy="-5.406%" r="1%" fill="black"/>
			<circle cx="8.413%" cy="5.406%" r="1%" fill="black"/>
			<circle cx="4.154%" cy="-9.096%" r="1%" fill="black"/>
			<circle cx="4.154%" cy="9.096%" r="1%" fill="black"/>
			<circle cx="-1.423%" cy="-9.898%" r="1%" fill="black"/>
			<circle cx="-1.423%" cy="9.898%" r="1%" fill="black"/>
			<circle cx="-6.549%" cy="-7.557%" r="1%" fill="black"/>
			<circle cx="-6.549%" cy="7.557%" r="1%" fill="black"/>
			<circle cx="-9.595%" cy="-2.817%" r="1%" fill="black"/>
			<circle cx="-9.595%" cy="2.817%" r="1%" fill="black"/>
		</g>
		<g>
			<animateTransform attributeName="transform" attributeType="XML" type="rotate" from="0" to="360" dur="18s" repeatCount="indefinite"/>
			<circle cx="12%" cy="0%" r="1%" fill="black"/>
			<circle cx="10.625%" cy="-5.577%" r="1%" fill="black"/>
			<circle cx="10.625%" cy="5.577%" r="1%" fill="black"/>
			<circle cx="6.817%" cy="-9.876%" r="1%" fill="black"/>
			<circle cx="6.817%" cy="9.876%" r="1%" fill="black"/>
			<circle cx="1.446%" cy="-11.913%" r="1%" fill="black"/>
			<circle cx="1.446%" cy="11.913%" r="1%" fill="black"/>
			<circle cx="-4.255%" cy="-11.22%" r="1%" fill="black"/>
			<circle cx="-4.255%" cy="11.22%" r="1%" fill="black"/>
			<circle cx="-8.982%" cy="-7.957%" r="1%" fill="black"/>
			<circle cx="-8.982%" cy="7.957%" r="1%" fill="black"/>
			<circle cx="-11.651%" cy="-2.872%" r="1%" fill="black"/>
			<circle cx="-11.651%" cy="2.872%" r="1%" fill="black"/>
		</g>
		<g>
			<animateTransform attributeName="transform" attributeType="XML" type="rotate" from="0" to="360" dur="21s" repeatCount="indefinite"/>
			<circle cx="14%" cy="0%" r="1%" fill="black"/>
			<circle cx="13.05%" cy="-5.06%" r="1%" fill="black"/>
			<circle cx="10.35%" cy="-9.43%" r="1%" fill="black"/>
			<circle cx="6.24%" cy="-12.53%" r="1%" fill="black"/>
			<circle cx="1.29%" cy="-13.94%" r="1%" fill="black"/>
			<circle cx="-3.83%" cy="-13.47%" r="1%" fill="black"/>
			<circle cx="-8.44%" cy="-11.17%" r="1%" fill="black"/>
			<circle cx="-11.9%" cy="-7.37%" r="1%" fill="black"/>
			<circle cx="-13.76%" cy="-2.57%" r="1%" fill="black"/>
			<circle cx="13.05%" cy="5.06%" r="1%" fill="black"/>
			<circle cx="10.35%" cy="9.43%" r="1%" fill="black"/>
			<circle cx="6.24%" cy="12.53%" r="1%" fill="black"/>
			<circle cx="1.29%" cy="13.94%" r="1%" fill="black"/>
			<circle cx="-3.83%" cy="13.47%" r="1%" fill="black"/>
			<circle cx="-8.44%" cy="11.17%" r="1%" fill="black"/>
			<circle cx="-11.9%" cy="7.37%" r="1%" fill="black"/>
			<circle cx="-13.76%" cy="2.57%" r="1%" fill="black"/>
		</g>
		<g>
			<animateTransform attributeName="transform" attributeType="XML" type="rotate" from="0" to="360" dur="24s" repeatCount="indefinite"/>
			<circle cx="16%" cy="0%" r="1%" fill="black"/>
			<circle cx="15.13%" cy="-5.2%" r="1%" fill="black"/>
			<circle cx="12.63%" cy="-9.83%" r="1%" fill="black"/>
			<circle cx="8.75%" cy="-13.39%" r="1%" fill="black"/>
			<circle cx="3.93%" cy="-15.51%" r="1%" fill="black"/>
			<circle cx="-1.32%" cy="-15.95%" r="1%" fill="black"/>
			<circle cx="-6.43%" cy="-14.65%" r="1%" fill="black"/>
			<circle cx="-10.84%" cy="-11.77%" r="1%" fill="black"/>
			<circle cx="-14.07%" cy="-7.62%" r="1%" fill="black"/>
			<circle cx="-15.78%" cy="-2.63%" r="1%" fill="black"/>
			<circle cx="15.13%" cy="5.2%" r="1%" fill="black"/>
			<circle cx="12.63%" cy="9.83%" r="1%" fill="black"/>
			<circle cx="8.75%" cy="13.39%" r="1%" fill="black"/>
			<circle cx="3.93%" cy="15.51%" r="1%" fill="black"/>
			<circle cx="-1.32%" cy="15.95%" r="1%" fill="black"/>
			<circle cx="-6.43%" cy="14.65%" r="1%" fill="black"/>
			<circle cx="-10.84%" cy="11.77%" r="1%" fill="black"/>
			<circle cx="-14.07%" cy="7.62%" r="1%" fill="black"/>
			<circle cx="-15.78%" cy="2.63%" r="1%" fill="black"/>
		</g>
		<g>
			<animateTransform attributeName="transform" attributeType="XML" type="rotate" from="0" to="360" dur="27s" repeatCount="indefinite"/>
			<circle cx="18%" cy="0%" r="1%" fill="black"/>
			<circle cx="17.33%" cy="-4.86%" r="1%" fill="black"/>
			<circle cx="15.38%" cy="-9.35%" r="1%" fill="black"/>
			<circle cx="12.29%" cy="-13.16%" r="1%" fill="black"/>
			<circle cx="8.28%" cy="-15.98%" r="1%" fill="black"/>
			<circle cx="3.66%" cy="-17.62%" r="1%" fill="black"/>
			<circle cx="-1.23%" cy="-17.96%" r="1%" fill="black"/>
			<circle cx="-6.03%" cy="-16.96%" r="1%" fill="black"/>
			<circle cx="-10.38%" cy="-14.71%" r="1%" fill="black"/>
			<circle cx="-13.96%" cy="-11.36%" r="1%" fill="black"/>
			<circle cx="-16.51%" cy="-7.17%" r="1%" fill="black"/>
			<circle cx="-17.83%" cy="-2.45%" r="1%" fill="black"/>
			<circle cx="-17.83%" cy="2.45%" r="1%" fill="black"/>
			<circle cx="-16.51%" cy="7.17%" r="1%" fill="black"/>
			<circle cx="-13.96%" cy="11.36%" r="1%" fill="black"/>
			<circle cx="-10.38%" cy="14.71%" r="1%" fill="black"/>
			<circle cx="-6.03%" cy="16.96%" r="1%" fill="black"/>
			<circle cx="-1.23%" cy="17.96%" r="1%" fill="black"/>
			<circle cx="3.66%" cy="17.62%" r="1%" fill="black"/>
			<circle cx="8.28%" cy="15.98%" r="1%" fill="black"/>
			<circle cx="12.29%" cy="13.16%" r="1%" fill="black"/>
			<circle cx="15.38%" cy="9.35%" r="1%" fill="black"/>
			<circle cx="17.33%" cy="4.86%" r="1%" fill="black"/>
		</g>
		<g>
			<animateTransform attributeName="transform" attributeType="XML" type="rotate" from="0" to="360" dur="30s" repeatCount="indefinite"/>
			<circle cx="20%" cy="0%" r="1%" fill="black"/>
			<circle cx="19.53%" cy="-4.3%" r="1%" fill="black"/>
			<circle cx="18.15%" cy="-8.4%" r="1%" fill="black"/>
			<circle cx="15.92%" cy="-12.1%" r="1%" fill="black"/>
			<circle cx="12.95%" cy="-15.24%" r="1%" fill="black"/>
			<circle cx="9.37%" cy="-17.67%" r="1%" fill="black"/>
			<circle cx="5.35%" cy="-19.27%" r="1%" fill="black"/>
			<circle cx="1.08%" cy="-19.97%" r="1%" fill="black"/>
			<circle cx="-3.24%" cy="-19.74%" r="1%" fill="black"/>
			<circle cx="-7.4%" cy="-18.58%" r="1%" fill="black"/>
			<circle cx="-11.22%" cy="-16.55%" r="1%" fill="black"/>
			<circle cx="-14.52%" cy="-13.75%" r="1%" fill="black"/>
			<circle cx="-17.14%" cy="-10.31%" r="1%" fill="black"/>
			<circle cx="-18.95%" cy="-6.39%" r="1%" fill="black"/>
			<circle cx="-19.88%" cy="-2.16%" r="1%" fill="black"/>
			<circle cx="-19.88%" cy="2.16%" r="1%" fill="black"/>
			<circle cx="-18.95%" cy="6.39%" r="1%" fill="black"/>
			<circle cx="-17.14%" cy="10.31%" r="1%" fill="black"/>
			<circle cx="-14.52%" cy="13.75%" r="1%" fill="black"/>
			<circle cx="-11.22%" cy="16.55%" r="1%" fill="black"/>
			<circle cx="-7.4%" cy="18.58%" r="1%" fill="black"/>
			<circle cx="-3.24%" cy="19.74%" r="1%" fill="black"/>
			<circle cx="1.08%" cy="19.97%" r="1%" fill="black"/>
			<circle cx="5.35%" cy="19.27%" r="1%" fill="black"/>
			<circle cx="9.37%" cy="17.67%" r="1%" fill="black"/>
			<circle cx="12.95%" cy="15.24%" r="1%" fill="black"/>
			<circle cx="15.92%" cy="12.1%" r="1%" fill="black"/>
			<circle cx="18.15%" cy="8.4%" r="1%" fill="black"/>
			<circle cx="19.53%" cy="4.3%" r="1%" fill="black"/>
		</g>
		<g>
			<animateTransform attributeName="transform" attributeType="XML" type="rotate" from="0" to="360" dur="33s" repeatCount="indefinite"/>
			<circle cx="22%" cy="0%" r="1%" fill="black"/>
			<circle cx="21.55%" cy="-4.43%" r="1%" fill="black"/>
			<circle cx="20.22%" cy="-8.68%" r="1%" fill="black"/>
			<circle cx="18.06%" cy="-12.57%" r="1%" fill="black"/>
			<circle cx="15.16%" cy="-15.95%" r="1%" fill="black"/>
			<circle cx="11.64%" cy="-18.67%" r="1%" fill="black"/>
			<circle cx="7.64%" cy="-20.63%" r="1%" fill="black"/>
			<circle cx="3.33%" cy="-21.75%" r="1%" fill="black"/>
			<circle cx="-1.11%" cy="-21.97%" r="1%" fill="black"/>
			<circle cx="-5.51%" cy="-21.3%" r="1%" fill="black"/>
			<circle cx="-9.69%" cy="-19.75%" r="1%" fill="black"/>
			<circle cx="-13.47%" cy="-17.4%" r="1%" fill="black"/>
			<circle cx="-16.69%" cy="-14.33%" r="1%" fill="black"/>
			<circle cx="-19.24%" cy="-10.68%" r="1%" fill="black"/>
			<circle cx="-20.99%" cy="-6.59%" r="1%" fill="black"/>
			<circle cx="-21.89%" cy="-2.23%" r="1%" fill="black"/>
			<circle cx="-21.89%" cy="2.23%" r="1%" fill="black"/>
			<circle cx="-20.99%" cy="6.59%" r="1%" fill="black"/>
			<circle cx="-19.24%" cy="10.68%" r="1%" fill="black"/>
			<circle cx="-16.69%" cy="14.33%" r="1%" fill="black"/>
			<circle cx="-13.47%" cy="17.4%" r="1%" fill="black"/>
			<circle cx="-9.69%" cy="19.75%" r="1%" fill="black"/>
			<circle cx="-5.51%" cy="21.3%" r="1%" fill="black"/>
			<circle cx="-1.11%" cy="21.97%" r="1%" fill="black"/>
			<circle cx="3.33%" cy="21.75%" r="1%" fill="black"/>
			<circle cx="7.64%" cy="20.63%" r="1%" fill="black"/>
			<circle cx="11.64%" cy="18.67%" r="1%" fill="black"/>
			<circle cx="15.16%" cy="15.95%" r="1%" fill="black"/>
			<circle cx="18.06%" cy="12.57%" r="1%" fill="black"/>
			<circle cx="20.22%" cy="8.68%" r="1%" fill="black"/>
			<circle cx="21.55%" cy="4.43%" r="1%" fill="black"/>
		</g>
		<g>
			<animateTransform attributeName="transform" attributeType="XML" type="rotate" from="0" to="360" dur="36s" repeatCount="indefinite"/>
			<circle cx="24%" cy="0%" r="1%" fill="black"/>
			<circle cx="23.65%" cy="-4.06%" r="1%" fill="black"/>
			<circle cx="22.63%" cy="-8%" r="1%" fill="black"/>
			<circle cx="20.95%" cy="-11.7%" r="1%" fill="black"/>
			<circle cx="18.67%" cy="-15.08%" r="1%" fill="black"/>
			<circle cx="15.86%" cy="-18.02%" r="1%" fill="black"/>
			<circle cx="12.58%" cy="-20.44%" r="1%" fill="black"/>
			<circle cx="8.95%" cy="-22.27%" r="1%" fill="black"/>
			<circle cx="5.06%" cy="-23.46%" r="1%" fill="black"/>
			<circle cx="1.02%" cy="-23.98%" r="1%" fill="black"/>
			<circle cx="-3.05%" cy="-23.81%" r="1%" fill="black"/>
			<circle cx="-7.03%" cy="-22.95%" r="1%" fill="black"/>
			<circle cx="-10.8%" cy="-21.43%" r="1%" fill="black"/>
			<circle cx="-14.27%" cy="-19.3%" r="1%" fill="black"/>
			<circle cx="-17.33%" cy="-16.61%" r="1%" fill="black"/>
			<circle cx="-19.88%" cy="-13.44%" r="1%" fill="black"/>
			<circle cx="-21.87%" cy="-9.89%" r="1%" fill="black"/>
			<circle cx="-23.23%" cy="-6.05%" r="1%" fill="black"/>
			<circle cx="-23.91%" cy="-2.04%" r="1%" fill="black"/>
			<circle cx="-23.91%" cy="2.04%" r="1%" fill="black"/>
			<circle cx="-23.23%" cy="6.05%" r="1%" fill="black"/>
			<circle cx="-21.87%" cy="9.89%" r="1%" fill="black"/>
			<circle cx="-19.88%" cy="13.44%" r="1%" fill="black"/>
			<circle cx="-17.33%" cy="16.61%" r="1%" fill="black"/>
			<circle cx="-14.27%" cy="19.3%" r="1%" fill="black"/>
			<circle cx="-10.8%" cy="21.43%" r="1%" fill="black"/>
			<circle cx="-7.03%" cy="22.95%" r="1%" fill="black"/>
			<circle cx="-3.05%" cy="23.81%" r="1%" fill="black"/>
			<circle cx="1.02%" cy="23.98%" r="1%" fill="black"/>
			<circle cx="5.06%" cy="23.46%" r="1%" fill="black"/>
			<circle cx="8.95%" cy="22.27%" r="1%" fill="black"/>
			<circle cx="12.58%" cy="20.44%" r="1%" fill="black"/>
			<circle cx="15.86%" cy="18.02%" r="1%" fill="black"/>
			<circle cx="18.67%" cy="15.08%" r="1%" fill="black"/>
			<circle cx="20.95%" cy="11.7%" r="1%" fill="black"/>
			<circle cx="22.63%" cy="8%" r="1%" fill="black"/>
			<circle cx="23.65%" cy="4.06%" r="1%" fill="black"/>
		</g>
		<g>
			<animateTransform attributeName="transform" attributeType="XML" type="rotate" from="0" to="360" dur="39s" repeatCount="indefinite"/>
			<circle cx="26%" cy="0%" r="1%" fill="black"/>
			<circle cx="25.7%" cy="-3.97%" r="1%" fill="black"/>
			<circle cx="24.79%" cy="-7.84%" r="1%" fill="black"/>
			<circle cx="23.3%" cy="-11.54%" r="1%" fill="black"/>
			<circle cx="21.27%" cy="-14.96%" r="1%" fill="black"/>
			<circle cx="18.73%" cy="-18.03%" r="1%" fill="black"/>
			<circle cx="15.76%" cy="-20.68%" r="1%" fill="black"/>
			<circle cx="12.42%" cy="-22.84%" r="1%" fill="black"/>
			<circle cx="8.79%" cy="-24.47%" r="1%" fill="black"/>
			<circle cx="4.95%" cy="-25.52%" r="1%" fill="black"/>
			<circle cx="1%" cy="-25.98%" r="1%" fill="black"/>
			<circle cx="-2.98%" cy="-25.83%" r="1%" fill="black"/>
			<circle cx="-6.89%" cy="-25.07%" r="1%" fill="black"/>
			<circle cx="-10.64%" cy="-23.73%" r="1%" fill="black"/>
			<circle cx="-14.13%" cy="-21.82%" r="1%" fill="black"/>
			<circle cx="-17.3%" cy="-19.41%" r="1%" fill="black"/>
			<circle cx="-20.06%" cy="-16.54%" r="1%" fill="black"/>
			<circle cx="-22.35%" cy="-13.29%" r="1%" fill="black"/>
			<circle cx="-24.12%" cy="-9.72%" r="1%" fill="black"/>
			<circle cx="-25.32%" cy="-5.92%" r="1%" fill="black"/>
			<circle cx="-25.92%" cy="-1.99%" r="1%" fill="black"/>
			<circle cx="-25.92%" cy="1.99%" r="1%" fill="black"/>
			<circle cx="-25.32%" cy="5.92%" r="1%" fill="black"/>
			<circle cx="-24.12%" cy="9.72%" r="1%" fill="black"/>
			<circle cx="-22.35%" cy="13.29%" r="1%" fill="black"/>
			<circle cx="-20.06%" cy="16.54%" r="1%" fill="black"/>
			<circle cx="-17.3%" cy="19.41%" r="1%" fill="black"/>
			<circle cx="-14.13%" cy="21.82%" r="1%" fill="black"/>
			<circle cx="-10.64%" cy="23.73%" r="1%" fill="black"/>
			<circle cx="-6.89%" cy="25.07%" r="1%" fill="black"/>
			<circle cx="-2.98%" cy="25.83%" r="1%" fill="black"/>
			<circle cx="1%" cy="25.98%" r="1%" fill="black"/>
			<circle cx="4.95%" cy="25.52%" r="1%" fill="black"/>
			<circle cx="8.79%" cy="24.47%" r="1%" fill="black"/>
			<circle cx="12.42%" cy="22.84%" r="1%" fill="black"/>
			<circle cx="15.76%" cy="20.68%" r="1%" fill="black"/>
			<circle cx="18.73%" cy="18.03%" r="1%" fill="black"/>
			<circle cx="21.27%" cy="14.96%" r="1%" fill="black"/>
			<circle cx="23.3%" cy="11.54%" r="1%" fill="black"/>
			<circle cx="24.79%" cy="7.84%" r="1%" fill="black"/>
			<circle cx="25.7%" cy="3.97%" r="1%" fill="black"/>
		</g>
		<g>
			<animateTransform attributeName="transform" attributeType="XML" type="rotate" from="0" to="360" dur="42s" repeatCount="indefinite"/>
			<circle cx="28%" cy="0%" r="1%" fill="black"/>
			<circle cx="27.7%" cy="-4.08%" r="1%" fill="black"/>
			<circle cx="26.81%" cy="-8.07%" r="1%" fill="black"/>
			<circle cx="25.35%" cy="-11.88%" r="1%" fill="black"/>
			<circle cx="23.35%" cy="-15.45%" r="1%" fill="black"/>
			<circle cx="20.85%" cy="-18.68%" r="1%" fill="black"/>
			<circle cx="17.91%" cy="-21.52%" r="1%" fill="black"/>
			<circle cx="14.59%" cy="-23.9%" r="1%" fill="black"/>
			<circle cx="10.95%" cy="-25.77%" r="1%" fill="black"/>
			<circle cx="7.08%" cy="-27.09%" r="1%" fill="black"/>
			<circle cx="3.06%" cy="-27.83%" r="1%" fill="black"/>
			<circle cx="-1.02%" cy="-27.98%" r="1%" fill="black"/>
			<circle cx="-5.09%" cy="-27.53%" r="1%" fill="black"/>
			<circle cx="-9.04%" cy="-26.5%" r="1%" fill="black"/>
			<circle cx="-12.8%" cy="-24.9%" r="1%" fill="black"/>
			<circle cx="-16.29%" cy="-22.77%" r="1%" fill="black"/>
			<circle cx="-19.43%" cy="-20.16%" r="1%" fill="black"/>
			<circle cx="-22.16%" cy="-17.11%" r="1%" fill="black"/>
			<circle cx="-24.42%" cy="-13.7%" r="1%" fill="black"/>
			<circle cx="-26.15%" cy="-10%" r="1%" fill="black"/>
			<circle cx="-27.33%" cy="-6.09%" r="1%" fill="black"/>
			<circle cx="-27.93%" cy="-2.04%" r="1%" fill="black"/>
			<circle cx="-27.93%" cy="2.04%" r="1%" fill="black"/>
			<circle cx="-27.33%" cy="6.09%" r="1%" fill="black"/>
			<circle cx="-26.15%" cy="10%" r="1%" fill="black"/>
			<circle cx="-24.42%" cy="13.7%" r="1%" fill="black"/>
			<circle cx="-22.16%" cy="17.11%" r="1%" fill="black"/>
			<circle cx="-19.43%" cy="20.16%" r="1%" fill="black"/>
			<circle cx="-16.29%" cy="22.77%" r="1%" fill="black"/>
			<circle cx="-12.8%" cy="24.9%" r="1%" fill="black"/>
			<circle cx="-9.04%" cy="26.5%" r="1%" fill="black"/>
			<circle cx="-5.09%" cy="27.53%" r="1%" fill="black"/>
			<circle cx="-1.02%" cy="27.98%" r="1%" fill="black"/>
			<circle cx="3.06%" cy="27.83%" r="1%" fill="black"/>
			<circle cx="7.08%" cy="27.09%" r="1%" fill="black"/>
			<circle cx="10.95%" cy="25.77%" r="1%" fill="black"/>
			<circle cx="14.59%" cy="23.9%" r="1%" fill="black"/>
			<circle cx="17.91%" cy="21.52%" r="1%" fill="black"/>
			<circle cx="20.85%" cy="18.68%" r="1%" fill="black"/>
			<circle cx="23.35%" cy="15.45%" r="1%" fill="black"/>
			<circle cx="25.35%" cy="11.88%" r="1%" fill="black"/>
			<circle cx="26.81%" cy="8.07%" r="1%" fill="black"/>
			<circle cx="27.7%" cy="4.08%" r="1%" fill="black"/>
		</g>
		<g>
			<animateTransform attributeName="transform" attributeType="XML" type="rotate" from="0" to="360" dur="45s" repeatCount="indefinite"/>
			<circle cx="30%" cy="0%" r="1%" fill="black"/>
			<circle cx="29.73%" cy="-4%" r="1%" fill="black"/>
			<circle cx="28.93%" cy="-7.93%" r="1%" fill="black"/>
			<circle cx="27.62%" cy="-11.71%" r="1%" fill="black"/>
			<circle cx="25.81%" cy="-15.29%" r="1%" fill="black"/>
			<circle cx="23.54%" cy="-18.59%" r="1%" fill="black"/>
			<circle cx="20.86%" cy="-21.56%" r="1%" fill="black"/>
			<circle cx="17.8%" cy="-24.15%" r="1%" fill="black"/>
			<circle cx="14.42%" cy="-26.31%" r="1%" fill="black"/>
			<circle cx="10.78%" cy="-28%" r="1%" fill="black"/>
			<circle cx="6.95%" cy="-29.18%" r="1%" fill="black"/>
			<circle cx="3%" cy="-29.85%" r="1%" fill="black"/>
			<circle cx="-1%" cy="-29.98%" r="1%" fill="black"/>
			<circle cx="-4.99%" cy="-29.58%" r="1%" fill="black"/>
			<circle cx="-8.89%" cy="-28.65%" r="1%" fill="black"/>
			<circle cx="-12.63%" cy="-27.21%" r="1%" fill="black"/>
			<circle cx="-16.14%" cy="-25.29%" r="1%" fill="black"/>
			<circle cx="-19.37%" cy="-22.91%" r="1%" fill="black"/>
			<circle cx="-22.25%" cy="-20.12%" r="1%" fill="black"/>
			<circle cx="-24.73%" cy="-16.98%" r="1%" fill="black"/>
			<circle cx="-26.78%" cy="-13.53%" r="1%" fill="black"/>
			<circle cx="-28.34%" cy="-9.84%" r="1%" fill="black"/>
			<circle cx="-29.4%" cy="-5.98%" r="1%" fill="black"/>
			<circle cx="-29.93%" cy="-2%" r="1%" fill="black"/>
			<circle cx="-29.93%" cy="2%" r="1%" fill="black"/>
			<circle cx="-29.4%" cy="5.98%" r="1%" fill="black"/>
			<circle cx="-28.34%" cy="9.84%" r="1%" fill="black"/>
			<circle cx="-26.78%" cy="13.53%" r="1%" fill="black"/>
			<circle cx="-24.73%" cy="16.98%" r="1%" fill="black"/>
			<circle cx="-22.25%" cy="20.12%" r="1%" fill="black"/>
			<circle cx="-19.37%" cy="22.91%" r="1%" fill="black"/>
			<circle cx="-16.14%" cy="25.29%" r="1%" fill="black"/>
			<circle cx="-12.63%" cy="27.21%" r="1%" fill="black"/>
			<circle cx="-8.89%" cy="28.65%" r="1%" fill="black"/>
			<circle cx="-4.99%" cy="29.58%" r="1%" fill="black"/>
			<circle cx="-1%" cy="29.98%" r="1%" fill="black"/>
			<circle cx="3%" cy="29.85%" r="1%" fill="black"/>
			<circle cx="6.95%" cy="29.18%" r="1%" fill="black"/>
			<circle cx="10.78%" cy="28%" r="1%" fill="black"/>
			<circle cx="14.42%" cy="26.31%" r="1%" fill="black"/>
			<circle cx="17.8%" cy="24.15%" r="1%" fill="black"/>
			<circle cx="20.86%" cy="21.56%" r="1%" fill="black"/>
			<circle cx="23.54%" cy="18.59%" r="1%" fill="black"/>
			<circle cx="25.81%" cy="15.29%" r="1%" fill="black"/>
			<circle cx="27.62%" cy="11.71%" r="1%" fill="black"/>
			<circle cx="28.93%" cy="7.93%" r="1%" fill="black"/>
			<circle cx="29.73%" cy="4%" r="1%" fill="black"/>
		</g>
		<g>
			<animateTransform attributeName="transform" attributeType="XML" type="rotate" from="0" to="360" dur="48s" repeatCount="indefinite"/>
			<circle cx="32%" cy="0%" r="1%" fill="black"/>
			<circle cx="31.78%" cy="-3.78%" r="1%" fill="black"/>
			<circle cx="31.1%" cy="-7.52%" r="1%" fill="black"/>
			<circle cx="30%" cy="-11.14%" r="1%" fill="black"/>
			<circle cx="28.47%" cy="-14.61%" r="1%" fill="black"/>
			<circle cx="26.54%" cy="-17.88%" r="1%" fill="black"/>
			<circle cx="24.24%" cy="-20.89%" r="1%" fill="black"/>
			<circle cx="21.6%" cy="-23.61%" r="1%" fill="black"/>
			<circle cx="18.66%" cy="-26%" r="1%" fill="black"/>
			<circle cx="15.45%" cy="-28.02%" r="1%" fill="black"/>
			<circle cx="12.03%" cy="-29.65%" r="1%" fill="black"/>
			<circle cx="8.43%" cy="-30.87%" r="1%" fill="black"/>
			<circle cx="4.72%" cy="-31.65%" r="1%" fill="black"/>
			<circle cx="0.95%" cy="-31.99%" r="1%" fill="black"/>
			<circle cx="-2.84%" cy="-31.87%" r="1%" fill="black"/>
			<circle cx="-6.59%" cy="-31.31%" r="1%" fill="black"/>
			<circle cx="-10.25%" cy="-30.31%" r="1%" fill="black"/>
			<circle cx="-13.76%" cy="-28.89%" r="1%" fill="black"/>
			<circle cx="-17.08%" cy="-27.06%" r="1%" fill="black"/>
			<circle cx="-20.16%" cy="-24.85%" r="1%" fill="black"/>
			<circle cx="-22.96%" cy="-22.29%" r="1%" fill="black"/>
			<circle cx="-25.44%" cy="-19.42%" r="1%" fill="black"/>
			<circle cx="-27.55%" cy="-16.27%" r="1%" fill="black"/>
			<circle cx="-29.28%" cy="-12.9%" r="1%" fill="black"/>
			<circle cx="-30.6%" cy="-9.35%" r="1%" fill="black"/>
			<circle cx="-31.5%" cy="-5.66%" r="1%" fill="black"/>
			<circle cx="-31.94%" cy="-1.9%" r="1%" fill="black"/>
			<circle cx="-31.94%" cy="1.9%" r="1%" fill="black"/>
			<circle cx="-31.5%" cy="5.66%" r="1%" fill="black"/>
			<circle cx="-30.6%" cy="9.35%" r="1%" fill="black"/>
			<circle cx="-29.28%" cy="12.9%" r="1%" fill="black"/>
			<circle cx="-27.55%" cy="16.27%" r="1%" fill="black"/>
			<circle cx="-25.44%" cy="19.42%" r="1%" fill="black"/>
			<circle cx="-22.96%" cy="22.29%" r="1%" fill="black"/>
			<circle cx="-20.16%" cy="24.85%" r="1%" fill="black"/>
			<circle cx="-17.08%" cy="27.06%" r="1%" fill="black"/>
			<circle cx="-13.76%" cy="28.89%" r="1%" fill="black"/>
			<circle cx="-10.25%" cy="30.31%" r="1%" fill="black"/>
			<circle cx="-6.59%" cy="31.31%" r="1%" fill="black"/>
			<circle cx="-2.84%" cy="31.87%" r="1%" fill="black"/>
			<circle cx="0.95%" cy="31.99%" r="1%" fill="black"/>
			<circle cx="4.72%" cy="31.65%" r="1%" fill="black"/>
			<circle cx="8.43%" cy="30.87%" r="1%" fill="black"/>
			<circle cx="12.03%" cy="29.65%" r="1%" fill="black"/>
			<circle cx="15.45%" cy="28.02%" r="1%" fill="black"/>
			<circle cx="18.66%" cy="26%" r="1%" fill="black"/>
			<circle cx="21.6%" cy="23.61%" r="1%" fill="black"/>
			<circle cx="24.24%" cy="20.89%" r="1%" fill="black"/>
			<circle cx="26.54%" cy="17.88%" r="1%" fill="black"/>
			<circle cx="28.47%" cy="14.61%" r="1%" fill="black"/>
			<circle cx="30%" cy="11.14%" r="1%" fill="black"/>
			<circle cx="31.1%" cy="7.52%" r="1%" fill="black"/>
			<circle cx="31.78%" cy="3.78%" r="1%" fill="black"/>
		</g>
		<g>
			<animateTransform attributeName="transform" attributeType="XML" type="rotate" from="0" to="360" dur="51s" repeatCount="indefinite"/>
			<circle cx="34%" cy="0%" r="1%" fill="black"/>
			<circle cx="33.81%" cy="-3.61%" r="1%" fill="black"/>
			<circle cx="33.23%" cy="-7.19%" r="1%" fill="black"/>
			<circle cx="32.28%" cy="-10.68%" r="1%" fill="black"/>
			<circle cx="30.96%" cy="-14.05%" r="1%" fill="black"/>
			<circle cx="29.29%" cy="-17.26%" r="1%" fill="black"/>
			<circle cx="27.29%" cy="-20.28%" r="1%" fill="black"/>
			<circle cx="24.98%" cy="-23.06%" r="1%" fill="black"/>
			<circle cx="22.39%" cy="-25.59%" r="1%" fill="black"/>
			<circle cx="19.54%" cy="-27.82%" r="1%" fill="black"/>
			<circle cx="16.47%" cy="-29.74%" r="1%" fill="black"/>
			<circle cx="13.22%" cy="-31.32%" r="1%" fill="black"/>
			<circle cx="9.82%" cy="-32.55%" r="1%" fill="black"/>
			<circle cx="6.3%" cy="-33.41%" r="1%" fill="black"/>
			<circle cx="2.71%" cy="-33.89%" r="1%" fill="black"/>
			<circle cx="-0.91%" cy="-33.99%" r="1%" fill="black"/>
			<circle cx="-4.51%" cy="-33.7%" r="1%" fill="black"/>
			<circle cx="-8.07%" cy="-33.03%" r="1%" fill="black"/>
			<circle cx="-11.53%" cy="-31.98%" r="1%" fill="black"/>
			<circle cx="-14.87%" cy="-30.58%" r="1%" fill="black"/>
			<circle cx="-18.03%" cy="-28.82%" r="1%" fill="black"/>
			<circle cx="-21%" cy="-26.74%" r="1%" fill="black"/>
			<circle cx="-23.72%" cy="-24.36%" r="1%" fill="black"/>
			<circle cx="-26.17%" cy="-21.7%" r="1%" fill="black"/>
			<circle cx="-28.33%" cy="-18.8%" r="1%" fill="black"/>
			<circle cx="-30.17%" cy="-15.68%" r="1%" fill="black"/>
			<circle cx="-31.67%" cy="-12.38%" r="1%" fill="black"/>
			<circle cx="-32.8%" cy="-8.95%" r="1%" fill="black"/>
			<circle cx="-33.57%" cy="-5.41%" r="1%" fill="black"/>
			<circle cx="-33.95%" cy="-1.81%" r="1%" fill="black"/>
			<circle cx="-33.95%" cy="1.81%" r="1%" fill="black"/>
			<circle cx="-33.57%" cy="5.41%" r="1%" fill="black"/>
			<circle cx="-32.8%" cy="8.95%" r="1%" fill="black"/>
			<circle cx="-31.67%" cy="12.38%" r="1%" fill="black"/>
			<circle cx="-30.17%" cy="15.68%" r="1%" fill="black"/>
			<circle cx="-28.33%" cy="18.8%" r="1%" fill="black"/>
			<circle cx="-26.17%" cy="21.7%" r="1%" fill="black"/>
			<circle cx="-23.72%" cy="24.36%" r="1%" fill="black"/>
			<circle cx="-21%" cy="26.74%" r="1%" fill="black"/>
			<circle cx="-18.03%" cy="28.82%" r="1%" fill="black"/>
			<circle cx="-14.87%" cy="30.58%" r="1%" fill="black"/>
			<circle cx="-11.53%" cy="31.98%" r="1%" fill="black"/>
			<circle cx="-8.07%" cy="33.03%" r="1%" fill="black"/>
			<circle cx="-4.51%" cy="33.7%" r="1%" fill="black"/>
			<circle cx="-0.91%" cy="33.99%" r="1%" fill="black"/>
			<circle cx="2.71%" cy="33.89%" r="1%" fill="black"/>
			<circle cx="6.3%" cy="33.41%" r="1%" fill="black"/>
			<circle cx="9.82%" cy="32.55%" r="1%" fill="black"/>
			<circle cx="13.22%" cy="31.32%" r="1%" fill="black"/>
			<circle cx="16.47%" cy="29.74%" r="1%" fill="black"/>
			<circle cx="19.54%" cy="27.82%" r="1%" fill="black"/>
			<circle cx="22.39%" cy="25.59%" r="1%" fill="black"/>
			<circle cx="24.98%" cy="23.06%" r="1%" fill="black"/>
			<circle cx="27.29%" cy="20.28%" r="1%" fill="black"/>
			<circle cx="29.29%" cy="17.26%" r="1%" fill="black"/>
			<circle cx="30.96%" cy="14.05%" r="1%" fill="black"/>
			<circle cx="32.28%" cy="10.68%" r="1%" fill="black"/>
			<circle cx="33.23%" cy="7.19%" r="1%" fill="black"/>
			<circle cx="33.81%" cy="3.61%" r="1%" fill="black"/>
		</g>
		<g>
			<animateTransform attributeName="transform" attributeType="XML" type="rotate" from="0" to="360" dur="54s" repeatCount="indefinite"/>
			<circle cx="36%" cy="0%" r="1%" fill="black"/>
			<circle cx="35.81%" cy="-3.7%" r="1%" fill="black"/>
			<circle cx="35.24%" cy="-7.36%" r="1%" fill="black"/>
			<circle cx="34.29%" cy="-10.95%" r="1%" fill="black"/>
			<circle cx="32.99%" cy="-14.42%" r="1%" fill="black"/>
			<circle cx="31.33%" cy="-17.73%" r="1%" fill="black"/>
			<circle cx="29.34%" cy="-20.86%" r="1%" fill="black"/>
			<circle cx="27.04%" cy="-23.77%" r="1%" fill="black"/>
			<circle cx="24.45%" cy="-26.42%" r="1%" fill="black"/>
			<circle cx="21.61%" cy="-28.79%" r="1%" fill="black"/>
			<circle cx="18.53%" cy="-30.86%" r="1%" fill="black"/>
			<circle cx="15.26%" cy="-32.61%" r="1%" fill="black"/>
			<circle cx="11.83%" cy="-34%" r="1%" fill="black"/>
			<circle cx="8.27%" cy="-35.04%" r="1%" fill="black"/>
			<circle cx="4.62%" cy="-35.7%" r="1%" fill="black"/>
			<circle cx="0.93%" cy="-35.99%" r="1%" fill="black"/>
			<circle cx="-2.78%" cy="-35.89%" r="1%" fill="black"/>
			<circle cx="-6.45%" cy="-35.42%" r="1%" fill="black"/>
			<circle cx="-10.06%" cy="-34.57%" r="1%" fill="black"/>
			<circle cx="-13.56%" cy="-33.35%" r="1%" fill="black"/>
			<circle cx="-16.92%" cy="-31.78%" r="1%" fill="black"/>
			<circle cx="-20.1%" cy="-29.87%" r="1%" fill="black"/>
			<circle cx="-23.06%" cy="-27.64%" r="1%" fill="black"/>
			<circle cx="-25.78%" cy="-25.13%" r="1%" fill="black"/>
			<circle cx="-28.23%" cy="-22.34%" r="1%" fill="black"/>
			<circle cx="-30.38%" cy="-19.32%" r="1%" fill="black"/>
			<circle cx="-32.2%" cy="-16.1%" r="1%" fill="black"/>
			<circle cx="-33.69%" cy="-12.7%" r="1%" fill="black"/>
			<circle cx="-34.81%" cy="-9.17%" r="1%" fill="black"/>
			<circle cx="-35.57%" cy="-5.54%" r="1%" fill="black"/>
			<circle cx="-35.95%" cy="-1.85%" r="1%" fill="black"/>
			<circle cx="-35.95%" cy="1.85%" r="1%" fill="black"/>
			<circle cx="-35.57%" cy="5.54%" r="1%" fill="black"/>
			<circle cx="-34.81%" cy="9.17%" r="1%" fill="black"/>
			<circle cx="-33.69%" cy="12.7%" r="1%" fill="black"/>
			<circle cx="-32.2%" cy="16.1%" r="1%" fill="black"/>
			<circle cx="-30.38%" cy="19.32%" r="1%" fill="black"/>
			<circle cx="-28.23%" cy="22.34%" r="1%" fill="black"/>
			<circle cx="-25.78%" cy="25.13%" r="1%" fill="black"/>
			<circle cx="-23.06%" cy="27.64%" r="1%" fill="black"/>
			<circle cx="-20.1%" cy="29.87%" r="1%" fill="black"/>
			<circle cx="-16.92%" cy="31.78%" r="1%" fill="black"/>
			<circle cx="-13.56%" cy="33.35%" r="1%" fill="black"/>
			<circle cx="-10.06%" cy="34.57%" r="1%" fill="black"/>
			<circle cx="-6.45%" cy="35.42%" r="1%" fill="black"/>
			<circle cx="-2.78%" cy="35.89%" r="1%" fill="black"/>
			<circle cx="0.93%" cy="35.99%" r="1%" fill="black"/>
			<circle cx="4.62%" cy="35.7%" r="1%" fill="black"/>
			<circle cx="8.27%" cy="35.04%" r="1%" fill="black"/>
			<circle cx="11.83%" cy="34%" r="1%" fill="black"/>
			<circle cx="15.26%" cy="32.61%" r="1%" fill="black"/>
			<circle cx="18.53%" cy="30.86%" r="1%" fill="black"/>
			<circle cx="21.61%" cy="28.79%" r="1%" fill="black"/>
			<circle cx="24.45%" cy="26.42%" r="1%" fill="black"/>
			<circle cx="27.04%" cy="23.77%" r="1%" fill="black"/>
			<circle cx="29.34%" cy="20.86%" r="1%" fill="black"/>
			<circle cx="31.33%" cy="17.73%" r="1%" fill="black"/>
			<circle cx="32.99%" cy="14.42%" r="1%" fill="black"/>
			<circle cx="34.29%" cy="10.95%" r="1%" fill="black"/>
			<circle cx="35.24%" cy="7.36%" r="1%" fill="black"/>
			<circle cx="35.81%" cy="3.7%" r="1%" fill="black"/>
		</g>
		<g>
			<animateTransform attributeName="transform" attributeType="XML" type="rotate" from="0" to="360" dur="57s" repeatCount="indefinite"/>
			<circle cx="38%" cy="0%" r="1%" fill="black"/>
			<circle cx="37.83%" cy="-3.56%" r="1%" fill="black"/>
			<circle cx="37.33%" cy="-7.09%" r="1%" fill="black"/>
			<circle cx="36.51%" cy="-10.55%" r="1%" fill="black"/>
			<circle cx="35.36%" cy="-13.92%" r="1%" fill="black"/>
			<circle cx="33.9%" cy="-17.17%" r="1%" fill="black"/>
			<circle cx="32.14%" cy="-20.27%" r="1%" fill="black"/>
			<circle cx="30.1%" cy="-23.19%" r="1%" fill="black"/>
			<circle cx="27.8%" cy="-25.91%" r="1%" fill="black"/>
			<circle cx="25.25%" cy="-28.4%" r="1%" fill="black"/>
			<circle cx="22.48%" cy="-30.64%" r="1%" fill="black"/>
			<circle cx="19.51%" cy="-32.61%" r="1%" fill="black"/>
			<circle cx="16.37%" cy="-34.29%" r="1%" fill="black"/>
			<circle cx="13.09%" cy="-35.67%" r="1%" fill="black"/>
			<circle cx="9.69%" cy="-36.74%" r="1%" fill="black"/>
			<circle cx="6.21%" cy="-37.49%" r="1%" fill="black"/>
			<circle cx="2.67%" cy="-37.91%" r="1%" fill="black"/>
			<circle cx="-0.89%" cy="-37.99%" r="1%" fill="black"/>
			<circle cx="-4.44%" cy="-37.74%" r="1%" fill="black"/>
			<circle cx="-7.96%" cy="-37.16%" r="1%" fill="black"/>
			<circle cx="-11.4%" cy="-36.25%" r="1%" fill="black"/>
			<circle cx="-14.75%" cy="-35.02%" r="1%" fill="black"/>
			<circle cx="-17.96%" cy="-33.49%" r="1%" fill="black"/>
			<circle cx="-21.02%" cy="-31.66%" r="1%" fill="black"/>
			<circle cx="-23.89%" cy="-29.55%" r="1%" fill="black"/>
			<circle cx="-26.55%" cy="-27.18%" r="1%" fill="black"/>
			<circle cx="-28.98%" cy="-24.58%" r="1%" fill="black"/>
			<circle cx="-31.16%" cy="-21.76%" r="1%" fill="black"/>
			<circle cx="-33.06%" cy="-18.74%" r="1%" fill="black"/>
			<circle cx="-34.67%" cy="-15.56%" r="1%" fill="black"/>
			<circle cx="-35.97%" cy="-12.25%" r="1%" fill="black"/>
			<circle cx="-36.96%" cy="-8.83%" r="1%" fill="black"/>
			<circle cx="-37.62%" cy="-5.33%" r="1%" fill="black"/>
			<circle cx="-37.96%" cy="-1.78%" r="1%" fill="black"/>
			<circle cx="-37.96%" cy="1.78%" r="1%" fill="black"/>
			<circle cx="-37.62%" cy="5.33%" r="1%" fill="black"/>
			<circle cx="-36.96%" cy="8.83%" r="1%" fill="black"/>
			<circle cx="-35.97%" cy="12.25%" r="1%" fill="black"/>
			<circle cx="-34.67%" cy="15.56%" r="1%" fill="black"/>
			<circle cx="-33.06%" cy="18.74%" r="1%" fill="black"/>
			<circle cx="-31.16%" cy="21.76%" r="1%" fill="black"/>
			<circle cx="-28.98%" cy="24.58%" r="1%" fill="black"/>
			<circle cx="-26.55%" cy="27.18%" r="1%" fill="black"/>
			<circle cx="-23.89%" cy="29.55%" r="1%" fill="black"/>
			<circle cx="-21.02%" cy="31.66%" r="1%" fill="black"/>
			<circle cx="-17.96%" cy="33.49%" r="1%" fill="black"/>
			<circle cx="-14.75%" cy="35.02%" r="1%" fill="black"/>
			<circle cx="-11.4%" cy="36.25%" r="1%" fill="black"/>
			<circle cx="-7.96%" cy="37.16%" r="1%" fill="black"/>
			<circle cx="-4.44%" cy="37.74%" r="1%" fill="black"/>
			<circle cx="-0.89%" cy="37.99%" r="1%" fill="black"/>
			<circle cx="2.67%" cy="37.91%" r="1%" fill="black"/>
			<circle cx="6.21%" cy="37.49%" r="1%" fill="black"/>
			<circle cx="9.69%" cy="36.74%" r="1%" fill="black"/>
			<circle cx="13.09%" cy="35.67%" r="1%" fill="black"/>
			<circle cx="16.37%" cy="34.29%" r="1%" fill="black"/>
			<circle cx="19.51%" cy="32.61%" r="1%" fill="black"/>
			<circle cx="22.48%" cy="30.64%" r="1%" fill="black"/>
			<circle cx="25.25%" cy="28.4%" r="1%" fill="black"/>
			<circle cx="27.8%" cy="25.91%" r="1%" fill="black"/>
			<circle cx="30.1%" cy="23.19%" r="1%" fill="black"/>
			<circle cx="32.14%" cy="20.27%" r="1%" fill="black"/>
			<circle cx="33.9%" cy="17.17%" r="1%" fill="black"/>
			<circle cx="35.36%" cy="13.92%" r="1%" fill="black"/>
			<circle cx="36.51%" cy="10.55%" r="1%" fill="black"/>
			<circle cx="37.33%" cy="7.09%" r="1%" fill="black"/>
			<circle cx="37.83%" cy="3.56%" r="1%" fill="black"/>
		</g>
		<g>
			<animateTransform attributeName="transform" attributeType="XML" type="rotate" from="0" to="360" dur="60s" repeatCount="indefinite"/>
			<circle cx="40%" cy="0%" r="1%" fill="black"/>
			<circle cx="39.84%" cy="-3.54%" r="1%" fill="black"/>
			<circle cx="39.38%" cy="-7.04%" r="1%" fill="black"/>
			<circle cx="38.6%" cy="-10.5%" r="1%" fill="black"/>
			<circle cx="37.52%" cy="-13.87%" r="1%" fill="black"/>
			<circle cx="36.15%" cy="-17.13%" r="1%" fill="black"/>
			<circle cx="34.49%" cy="-20.25%" r="1%" fill="black"/>
			<circle cx="32.57%" cy="-23.22%" r="1%" fill="black"/>
			<circle cx="30.39%" cy="-26.01%" r="1%" fill="black"/>
			<circle cx="27.97%" cy="-28.6%" r="1%" fill="black"/>
			<circle cx="25.33%" cy="-30.96%" r="1%" fill="black"/>
			<circle cx="22.5%" cy="-33.07%" r="1%" fill="black"/>
			<circle cx="19.49%" cy="-34.93%" r="1%" fill="black"/>
			<circle cx="16.32%" cy="-36.52%" r="1%" fill="black"/>
			<circle cx="13.03%" cy="-37.82%" r="1%" fill="black"/>
			<circle cx="9.64%" cy="-38.82%" r="1%" fill="black"/>
			<circle cx="6.17%" cy="-39.52%" r="1%" fill="black"/>
			<circle cx="2.65%" cy="-39.91%" r="1%" fill="black"/>
			<circle cx="-0.88%" cy="-39.99%" r="1%" fill="black"/>
			<circle cx="-4.42%" cy="-39.76%" r="1%" fill="black"/>
			<circle cx="-7.91%" cy="-39.21%" r="1%" fill="black"/>
			<circle cx="-11.35%" cy="-38.36%" r="1%" fill="black"/>
			<circle cx="-14.69%" cy="-37.2%" r="1%" fill="black"/>
			<circle cx="-17.92%" cy="-35.76%" r="1%" fill="black"/>
			<circle cx="-21.01%" cy="-34.04%" r="1%" fill="black"/>
			<circle cx="-23.94%" cy="-32.05%" r="1%" fill="black"/>
			<circle cx="-26.68%" cy="-29.8%" r="1%" fill="black"/>
			<circle cx="-29.21%" cy="-27.33%" r="1%" fill="black"/>
			<circle cx="-31.51%" cy="-24.64%" r="1%" fill="black"/>
			<circle cx="-33.56%" cy="-21.76%" r="1%" fill="black"/>
			<circle cx="-35.35%" cy="-18.71%" r="1%" fill="black"/>
			<circle cx="-36.87%" cy="-15.51%" r="1%" fill="black"/>
			<circle cx="-38.1%" cy="-12.19%" r="1%" fill="black"/>
			<circle cx="-39.03%" cy="-8.78%" r="1%" fill="black"/>
			<circle cx="-39.65%" cy="-5.29%" r="1%" fill="black"/>
			<circle cx="-39.96%" cy="-1.77%" r="1%" fill="black"/>
			<circle cx="-39.96%" cy="1.77%" r="1%" fill="black"/>
			<circle cx="-39.65%" cy="5.29%" r="1%" fill="black"/>
			<circle cx="-39.03%" cy="8.78%" r="1%" fill="black"/>
			<circle cx="-38.1%" cy="12.19%" r="1%" fill="black"/>
			<circle cx="-36.87%" cy="15.51%" r="1%" fill="black"/>
			<circle cx="-35.35%" cy="18.71%" r="1%" fill="black"/>
			<circle cx="-33.56%" cy="21.76%" r="1%" fill="black"/>
			<circle cx="-31.51%" cy="24.64%" r="1%" fill="black"/>
			<circle cx="-29.21%" cy="27.33%" r="1%" fill="black"/>
			<circle cx="-26.68%" cy="29.8%" r="1%" fill="black"/>
			<circle cx="-23.94%" cy="32.05%" r="1%" fill="black"/>
			<circle cx="-21.01%" cy="34.04%" r="1%" fill="black"/>
			<circle cx="-17.92%" cy="35.76%" r="1%" fill="black"/>
			<circle cx="-14.69%" cy="37.2%" r="1%" fill="black"/>
			<circle cx="-11.35%" cy="38.36%" r="1%" fill="black"/>
			<circle cx="-7.91%" cy="39.21%" r="1%" fill="black"/>
			<circle cx="-4.42%" cy="39.76%" r="1%" fill="black"/>
			<circle cx="-0.88%" cy="39.99%" r="1%" fill="black"/>
			<circle cx="2.65%" cy="39.91%" r="1%" fill="black"/>
			<circle cx="6.17%" cy="39.52%" r="1%" fill="black"/>
			<circle cx="9.64%" cy="38.82%" r="1%" fill="black"/>
			<circle cx="13.03%" cy="37.82%" r="1%" fill="black"/>
			<circle cx="16.32%" cy="36.52%" r="1%" fill="black"/>
			<circle cx="19.49%" cy="34.93%" r="1%" fill="black"/>
			<circle cx="22.5%" cy="33.07%" r="1%" fill="black"/>
			<circle cx="25.33%" cy="30.96%" r="1%" fill="black"/>
			<circle cx="27.97%" cy="28.6%" r="1%" fill="black"/>
			<circle cx="30.39%" cy="26.01%" r="1%" fill="black"/>
			<circle cx="32.57%" cy="23.22%" r="1%" fill="black"/>
			<circle cx="34.49%" cy="20.25%" r="1%" fill="black"/>
			<circle cx="36.15%" cy="17.13%" r="1%" fill="black"/>
			<circle cx="37.52%" cy="13.87%" r="1%" fill="black"/>
			<circle cx="38.6%" cy="10.5%" r="1%" fill="black"/>
			<circle cx="39.38%" cy="7.04%" r="1%" fill="black"/>
			<circle cx="39.84%" cy="3.54%" r="1%" fill="black"/>
		</g>
	</g>
	
</svg>